Coordinates
version=1
nRows=6
nColumns=34
inDegrees=yes

Units are S.I. units (second, meters, Newtons, ...)
If the header above contains a line with 'inDegrees', this indicates whether rotational values are in degrees (yes) or radians (no).

endheader
time	pelvis_tilt	pelvis_list	pelvis_rotation	pelvis_tx	pelvis_ty	pelvis_tz	hip_flexion_r	hip_adduction_r	hip_rotation_r	knee_angle_r	ankle_angle_r	subtalar_angle_r	mtp_angle_r	hip_flexion_l	hip_adduction_l	hip_rotation_l	knee_angle_l	ankle_angle_l	subtalar_angle_l	mtp_angle_l	lumbar_extension	lumbar_bending	lumbar_rotation	arm_flex_r	arm_add_r	arm_rot_r	elbow_flex_r	pro_sup_r	arm_flex_l	arm_add_l	arm_rot_l	elbow_flex_l	pro_sup_l
      5.28333330	    -11.18131729	    -16.61516157	     14.04033753	      3.56364047	      0.91263806	     -0.13458506	     12.82131371	     13.64602901	    -21.30145468	      1.77270302	     23.18158334	      0.56502527	      0.00000000	     -8.65011600	    -20.31327544	     -8.11093694	      0.00000000	     18.43388292	     18.90885712	      0.00000000	     12.57115100	     17.57308827	    -27.51559358	    -12.59359748	     -8.99551963	     -4.91971858	     43.55137170	    101.86342546	    -21.30505692	     -2.73991276	    -16.95162955	     61.68790132	    110.56367771
      5.30000000	    -11.63190241	    -17.02320943	     13.96689996	      3.56913412	      0.90595854	     -0.13427895	     13.19700230	     14.11389463	    -20.81648427	      2.38347930	     23.36194334	      0.43010759	      0.00000000	     -8.98818707	    -20.94740461	     -8.01790650	      0.00000000	     18.06294029	     18.33854021	      0.00000000	     13.16333456	     17.93092495	    -28.08164634	    -12.95137440	     -9.48742214	     -4.69624685	     45.11897265	    101.95000880	    -22.51376165	     -2.01202108	    -17.75534527	     62.31007573	    110.65596134
      5.31666670	    -12.03071140	    -17.33142852	     13.90365146	      3.57598470	      0.90574735	     -0.13155151	     13.60048212	     14.46803666	    -19.96949860	      3.29762054	     23.12722944	     -0.48480315	      0.00000000	     -9.11382287	    -21.51184694	     -7.43283410	      0.33274463	     17.92293263	     17.52421271	      0.00000000	     13.72837468	     18.18265865	    -28.65922323	    -13.24984986	     -9.92776152	     -4.34212619	     46.46094195	    102.05594819	    -23.61355902	     -1.16230872	    -18.91632780	     62.57743968	    110.81932373
      5.33333330	    -12.45718936	    -17.53561297	     13.86729810	      3.58624804	      0.90907606	     -0.12724618	     13.68565278	     14.83475978	    -18.77226689	      3.93680783	     22.18478224	     -2.36546350	      0.00000000	     -9.09465148	    -22.01878689	     -6.72200153	      0.77123518	     17.66534596	     16.74200831	      0.00000000	     14.23566586	     18.11954506	    -29.65748236	    -13.00059429	    -10.46153548	     -3.03290946	     47.24693556	    102.33040270	    -25.07298901	      0.11196525	    -21.05794543	     63.37029829	    111.33277123
      5.35000000	    -13.14499946	    -17.79266632	     13.99025181	      3.59733974	      0.90530731	     -0.12582398	     13.95557899	     15.12042220	    -18.92152755	      4.61903918	     21.36162250	     -2.89350107	      0.00000000	     -8.67995280	    -22.55446401	     -6.34445176	      1.31368657	     17.67025148	     16.45198338	      0.00000000	     15.25027911	     18.00335885	    -30.41775867	    -13.13601718	    -10.78524043	     -2.74828032	     47.49640853	    102.34506513	    -26.19657765	      0.68651431	    -21.33807833	     63.28827315	    111.53826446
      5.36666670	    -13.59048498	    -17.83195986	     14.02161111	      3.60905377	      0.90084036	     -0.12550901	     13.60606715	     15.35249955	    -18.15877672	      4.91544923	     19.69690092	     -5.36524951	      0.00000000	     -8.64923771	    -22.78519588	     -5.60035285	      1.52838440	     16.90140658	     14.95540277	      0.00000000	     15.73089728	     17.50588513	    -32.36406725	    -11.89834311	    -11.93501567	      1.21815645	     47.31169874	    102.55484179	    -28.18424931	      2.83091442	    -25.61062747	     64.40703727	    112.97142652
